<svg width="45" height="45" viewBox="0 0 45 45" fill="none" xmlns="http://www.w3.org/2000/svg">
<path d="M0 44.9167H6.41669V38.5001H0V44.9167ZM12.8334 32.0834H6.41669V38.5001H12.8334V32.0834ZM19.2501 25.6667H12.8334V32.0834H19.2501V25.6667ZM25.6667 25.6667H19.2501V19.25H12.8334V12.8333H6.41669V6.41663H0V-6.10352e-05H6.41669V6.41663H12.8334V12.8333H19.2501V19.25H25.6667V12.8333H32.0834V6.41663H38.5001V-6.10352e-05H44.9168V6.41663H38.5001V12.8333H32.0834V19.25H25.6667V25.6667ZM32.0834 32.0834V25.6667H25.6667V32.0834H32.0834ZM38.5001 38.5001V32.0834H32.0834V38.5001H38.5001ZM38.5001 38.5001V44.9167H44.9168V38.5001H38.5001Z" fill="white"/>
</svg>
