<svg width="299" height="145" viewBox="0 0 299 145" fill="none" xmlns="http://www.w3.org/2000/svg">
<path d="M298.043 106.807C298.681 109.353 299 112.536 299 116.355C299 120.016 298.681 123.198 298.043 125.904H288.47C289.108 128.45 289.427 131.633 289.427 135.452C289.427 139.112 289.108 142.295 288.47 145H240.608C239.97 142.295 239.65 139.112 239.65 135.452C239.65 131.633 239.97 128.45 240.608 125.904H231.035C230.397 123.198 230.078 120.016 230.078 116.355C230.078 112.536 230.397 109.353 231.035 106.807H221.463C220.825 104.102 220.505 100.919 220.505 97.259C220.505 93.4397 220.825 90.257 221.463 87.7108C220.825 85.0054 220.505 81.8227 220.505 78.1626C220.505 74.3433 220.825 71.1605 221.463 68.6144C220.825 65.909 220.505 62.7263 220.505 59.0662C220.505 55.2469 220.825 52.0641 221.463 49.518H231.035C230.397 46.8126 230.078 43.6299 230.078 39.9697C230.078 36.1505 230.397 32.9677 231.035 30.4215H240.608C239.97 27.7162 239.65 24.5335 239.65 20.8733C239.65 17.054 239.97 13.8713 240.608 11.3251H288.47C289.108 13.8713 289.427 17.054 289.427 20.8733C289.427 24.5335 289.108 27.7162 288.47 30.4215H298.043C298.681 32.9677 299 36.1505 299 39.9697C299 43.6299 298.681 46.8126 298.043 49.518H278.898C278.26 46.8126 277.94 43.6299 277.94 39.9697C277.94 36.1505 278.26 32.9677 278.898 30.4215H250.18C250.818 32.9677 251.137 36.1505 251.137 39.9697C251.137 43.6299 250.818 46.8126 250.18 49.518H240.608C241.246 52.0641 241.565 55.2469 241.565 59.0662C241.565 62.7263 241.246 65.909 240.608 68.6144C241.246 71.1605 241.565 74.3433 241.565 78.1626C241.565 81.8227 241.246 85.0054 240.608 87.7108C241.246 90.257 241.565 93.4397 241.565 97.259C241.565 100.919 241.246 104.102 240.608 106.807H250.18C250.818 109.353 251.137 112.536 251.137 116.355C251.137 120.016 250.818 123.198 250.18 125.904H278.898C278.26 123.198 277.94 120.016 277.94 116.355C277.94 112.536 278.26 109.353 278.898 106.807H298.043Z" fill="white"/>
<path d="M213.932 19.3719C213.932 20.8571 213.802 22.1486 213.542 23.2463H208.666C208.926 24.2795 209.056 25.5709 209.056 27.1207C209.056 28.6059 208.926 29.8973 208.666 30.9951H203.79C204.05 32.0283 204.18 33.3197 204.18 34.8695C204.18 36.3547 204.05 37.6461 203.79 38.7439H198.914C199.174 39.777 199.304 41.0685 199.304 42.6182C199.304 44.1034 199.174 45.3949 198.914 46.4926H213.542C213.802 47.5258 213.932 48.8173 213.932 50.367C213.932 51.8522 213.802 53.1437 213.542 54.2414H186.236C185.976 53.1437 185.846 51.8522 185.846 50.367C185.846 48.8173 185.976 47.5258 186.236 46.4926H191.112C190.852 45.3949 190.722 44.1034 190.722 42.6182C190.722 41.0685 190.852 39.777 191.112 38.7439H195.988C195.728 37.6461 195.598 36.3547 195.598 34.8695C195.598 33.3197 195.728 32.0283 195.988 30.9951H200.864C200.604 29.8973 200.474 28.6059 200.474 27.1207C200.474 25.5709 200.604 24.2795 200.864 23.2463H205.74C205.48 22.1486 205.35 20.8571 205.35 19.3719C205.35 17.8222 205.48 16.5307 205.74 15.4975C205.48 14.3998 205.35 13.1083 205.35 11.6232C205.35 10.0734 205.48 8.78194 205.74 7.74877H192.087C192.347 8.78194 192.478 10.0734 192.478 11.6232C192.478 13.1083 192.347 14.3998 192.087 15.4975H186.236C185.976 14.3998 185.846 13.1083 185.846 11.6232C185.846 10.0734 185.976 8.78194 186.236 7.74877H190.137C189.877 6.65103 189.747 5.35957 189.747 3.87438C189.747 2.32463 189.877 1.03317 190.137 0H209.641C209.901 1.03317 210.031 2.32463 210.031 3.87438C210.031 5.35957 209.901 6.65103 209.641 7.74877H213.542C213.802 8.78194 213.932 10.0734 213.932 11.6232C213.932 13.1083 213.802 14.3998 213.542 15.4975C213.802 16.5307 213.932 17.8222 213.932 19.3719Z" fill="white"/>
<path d="M173.356 30.4215C173.994 32.9677 174.313 36.1505 174.313 39.9697C174.313 43.6299 173.994 46.8126 173.356 49.518C173.994 52.0641 174.313 55.2469 174.313 59.0662C174.313 62.7263 173.994 65.909 173.356 68.6144C173.994 71.1605 174.313 74.3433 174.313 78.1626C174.313 81.8227 173.994 85.0054 173.356 87.7108C173.994 90.257 174.313 93.4397 174.313 97.259C174.313 100.919 173.994 104.102 173.356 106.807C173.994 109.353 174.313 112.536 174.313 116.355C174.313 120.016 173.994 123.198 173.356 125.904C173.994 128.45 174.313 131.633 174.313 135.452C174.313 139.112 173.994 142.295 173.356 145H154.211C153.572 142.295 153.253 139.112 153.253 135.452C153.253 131.633 153.572 128.45 154.211 125.904C153.572 123.198 153.253 120.016 153.253 116.355C153.253 112.536 153.572 109.353 154.211 106.807C153.572 104.102 153.253 100.919 153.253 97.259C153.253 93.4397 153.572 90.257 154.211 87.7108C153.572 85.0054 153.253 81.8227 153.253 78.1626C153.253 74.3433 153.572 71.1605 154.211 68.6144C153.572 65.909 153.253 62.7263 153.253 59.0662C153.253 55.2469 153.572 52.0641 154.211 49.518H147.031C147.669 52.0641 147.989 55.2469 147.989 59.0662C147.989 62.7263 147.669 65.909 147.031 68.6144C147.669 71.1605 147.989 74.3433 147.989 78.1626C147.989 81.8227 147.669 85.0054 147.031 87.7108H142.245C142.883 90.257 143.202 93.4397 143.202 97.259C143.202 100.919 142.883 104.102 142.245 106.807C142.883 109.353 143.202 112.536 143.202 116.355C143.202 120.016 142.883 123.198 142.245 125.904H127.886C127.248 123.198 126.929 120.016 126.929 116.355C126.929 112.536 127.248 109.353 127.886 106.807C127.248 104.102 126.929 100.919 126.929 97.259C126.929 93.4397 127.248 90.257 127.886 87.7108H123.1C122.462 85.0054 122.143 81.8227 122.143 78.1626C122.143 74.3433 122.462 71.1605 123.1 68.6144C122.462 65.909 122.143 62.7263 122.143 59.0662C122.143 55.2469 122.462 52.0641 123.1 49.518H115.921C116.559 52.0641 116.878 55.2469 116.878 59.0662C116.878 62.7263 116.559 65.909 115.921 68.6144C116.559 71.1605 116.878 74.3433 116.878 78.1626C116.878 81.8227 116.559 85.0054 115.921 87.7108C116.559 90.257 116.878 93.4397 116.878 97.259C116.878 100.919 116.559 104.102 115.921 106.807C116.559 109.353 116.878 112.536 116.878 116.355C116.878 120.016 116.559 123.198 115.921 125.904C116.559 128.45 116.878 131.633 116.878 135.452C116.878 139.112 116.559 142.295 115.921 145H96.7757C96.1375 142.295 95.8184 139.112 95.8184 135.452C95.8184 131.633 96.1375 128.45 96.7757 125.904C96.1375 123.198 95.8184 120.016 95.8184 116.355C95.8184 112.536 96.1375 109.353 96.7757 106.807C96.1375 104.102 95.8184 100.919 95.8184 97.259C95.8184 93.4397 96.1375 90.257 96.7757 87.7108C96.1375 85.0054 95.8184 81.8227 95.8184 78.1626C95.8184 74.3433 96.1375 71.1605 96.7757 68.6144C96.1375 65.909 95.8184 62.7263 95.8184 59.0662C95.8184 55.2469 96.1375 52.0641 96.7757 49.518C96.1375 46.8126 95.8184 43.6299 95.8184 39.9697C95.8184 36.1505 96.1375 32.9677 96.7757 30.4215C96.1375 27.7162 95.8184 24.5335 95.8184 20.8733C95.8184 17.054 96.1375 13.8713 96.7757 11.3251H120.707C121.345 13.8713 121.664 17.054 121.664 20.8733C121.664 24.5335 121.345 27.7162 120.707 30.4215H127.886C128.524 32.9677 128.844 36.1505 128.844 39.9697C128.844 43.6299 128.524 46.8126 127.886 49.518H131.476C132.114 52.0641 132.433 55.2469 132.433 59.0662C132.433 62.7263 132.114 65.909 131.476 68.6144H138.655C138.017 65.909 137.698 62.7263 137.698 59.0662C137.698 55.2469 138.017 52.0641 138.655 49.518H142.245C141.607 46.8126 141.288 43.6299 141.288 39.9697C141.288 36.1505 141.607 32.9677 142.245 30.4215H149.424C148.786 27.7162 148.467 24.5335 148.467 20.8733C148.467 17.054 148.786 13.8713 149.424 11.3251H173.356C173.994 13.8713 174.313 17.054 174.313 20.8733C174.313 24.5335 173.994 27.7162 173.356 30.4215Z" fill="white"/>
<path d="M77.5372 125.904C78.1754 128.45 78.4945 131.633 78.4945 135.452C78.4945 139.112 78.1754 142.295 77.5372 145H58.3922C57.7541 142.295 57.435 139.112 57.435 135.452C57.435 131.633 57.7541 128.45 58.3922 125.904H51.2129C50.5747 123.198 50.2556 120.016 50.2556 116.355C50.2556 112.536 50.5747 109.353 51.2129 106.807H36.8541C36.216 104.102 35.8969 100.919 35.8969 97.259C35.8969 93.4397 36.216 90.257 36.8541 87.7108H20.1022C20.7404 90.257 21.0595 93.4397 21.0595 97.259C21.0595 100.919 20.7404 104.102 20.1022 106.807C20.7404 109.353 21.0595 112.536 21.0595 116.355C21.0595 120.016 20.7404 123.198 20.1022 125.904C20.7404 128.45 21.0595 131.633 21.0595 135.452C21.0595 139.112 20.7404 142.295 20.1022 145H0.95725C0.319083 142.295 0 139.112 0 135.452C0 131.633 0.319083 128.45 0.95725 125.904C0.319083 123.198 0 120.016 0 116.355C0 112.536 0.319083 109.353 0.95725 106.807C0.319083 104.102 0 100.919 0 97.259C0 93.4397 0.319083 90.257 0.95725 87.7108C0.319083 85.0054 0 81.8227 0 78.1626C0 74.3433 0.319083 71.1605 0.95725 68.6144C0.319083 65.909 0 62.7263 0 59.0662C0 55.2469 0.319083 52.0641 0.95725 49.518C0.319083 46.8126 0 43.6299 0 39.9697C0 36.1505 0.319083 32.9677 0.95725 30.4215C0.319083 27.7162 0 24.5335 0 20.8733C0 17.054 0.319083 13.8713 0.95725 11.3251H20.1022C20.7404 13.8713 21.0595 17.054 21.0595 20.8733C21.0595 24.5335 20.7404 27.7162 20.1022 30.4215C20.7404 32.9677 21.0595 36.1505 21.0595 39.9697C21.0595 43.6299 20.7404 46.8126 20.1022 49.518C20.7404 52.0641 21.0595 55.2469 21.0595 59.0662C21.0595 62.7263 20.7404 65.909 20.1022 68.6144H36.8541C36.216 65.909 35.8969 62.7263 35.8969 59.0662C35.8969 55.2469 36.216 52.0641 36.8541 49.518H51.2129C50.5747 46.8126 50.2556 43.6299 50.2556 39.9697C50.2556 36.1505 50.5747 32.9677 51.2129 30.4215H58.3922C57.7541 27.7162 57.435 24.5335 57.435 20.8733C57.435 17.054 57.7541 13.8713 58.3922 11.3251H77.5372C78.1754 13.8713 78.4945 17.054 78.4945 20.8733C78.4945 24.5335 78.1754 27.7162 77.5372 30.4215H70.3579C70.996 32.9677 71.3151 36.1505 71.3151 39.9697C71.3151 43.6299 70.996 46.8126 70.3579 49.518H55.9991C56.6373 52.0641 56.9564 55.2469 56.9564 59.0662C56.9564 62.7263 56.6373 65.909 55.9991 68.6144H44.0335C44.6717 71.1605 44.9907 74.3433 44.9907 78.1626C44.9907 81.8227 44.6717 85.0054 44.0335 87.7108H55.9991C56.6373 90.257 56.9564 93.4397 56.9564 97.259C56.9564 100.919 56.6373 104.102 55.9991 106.807H70.3579C70.996 109.353 71.3151 112.536 71.3151 116.355C71.3151 120.016 70.996 123.198 70.3579 125.904H77.5372Z" fill="white"/>
</svg>
