<svg width="1663" height="805" viewBox="0 0 1663 805" fill="none" xmlns="http://www.w3.org/2000/svg">
<path d="M1657.68 592.964C1661.23 607.1 1663 624.769 1663 645.973C1663 666.293 1661.23 683.963 1657.68 698.982H1604.43C1607.98 713.118 1609.76 730.787 1609.76 751.991C1609.76 772.311 1607.98 789.981 1604.43 805H1338.23C1334.68 789.981 1332.91 772.311 1332.91 751.991C1332.91 730.787 1334.68 713.118 1338.23 698.982H1284.99C1281.44 683.963 1279.66 666.293 1279.66 645.973C1279.66 624.769 1281.44 607.1 1284.99 592.964H1231.75C1228.2 577.945 1226.42 560.275 1226.42 539.955C1226.42 518.751 1228.2 501.082 1231.75 486.946C1228.2 471.927 1226.42 454.257 1226.42 433.937C1226.42 412.733 1228.2 395.064 1231.75 380.928C1228.2 365.909 1226.42 348.239 1226.42 327.919C1226.42 306.715 1228.2 289.046 1231.75 274.91H1284.99C1281.44 259.891 1279.66 242.221 1279.66 221.901C1279.66 200.697 1281.44 183.028 1284.99 168.892H1338.23C1334.68 153.873 1332.91 136.203 1332.91 115.883C1332.91 94.6794 1334.68 77.0097 1338.23 62.874H1604.43C1607.98 77.0097 1609.76 94.6794 1609.76 115.883C1609.76 136.203 1607.98 153.873 1604.43 168.892H1657.68C1661.23 183.028 1663 200.697 1663 221.901C1663 242.221 1661.23 259.891 1657.68 274.91H1551.19C1547.64 259.891 1545.87 242.221 1545.87 221.901C1545.87 200.697 1547.64 183.028 1551.19 168.892H1391.47C1395.02 183.028 1396.79 200.697 1396.79 221.901C1396.79 242.221 1395.02 259.891 1391.47 274.91H1338.23C1341.78 289.046 1343.55 306.715 1343.55 327.919C1343.55 348.239 1341.78 365.909 1338.23 380.928C1341.78 395.064 1343.55 412.733 1343.55 433.937C1343.55 454.257 1341.78 471.927 1338.23 486.946C1341.78 501.082 1343.55 518.751 1343.55 539.955C1343.55 560.275 1341.78 577.945 1338.23 592.964H1391.47C1395.02 607.1 1396.79 624.769 1396.79 645.973C1396.79 666.293 1395.02 683.963 1391.47 698.982H1551.19C1547.64 683.963 1545.87 666.293 1545.87 645.973C1545.87 624.769 1547.64 607.1 1551.19 592.964H1657.68Z" fill="#C21807"/>
<path d="M1189.86 107.548C1189.86 115.793 1189.14 122.963 1187.69 129.057H1160.57C1162.02 134.793 1162.74 141.963 1162.74 150.567C1162.74 158.812 1162.02 165.982 1160.57 172.076H1133.45C1134.9 177.812 1135.62 184.982 1135.62 193.586C1135.62 201.831 1134.9 209.001 1133.45 215.095H1106.33C1107.78 220.831 1108.5 228.001 1108.5 236.605C1108.5 244.85 1107.78 252.02 1106.33 258.114H1187.69C1189.14 263.85 1189.86 271.02 1189.86 279.624C1189.86 287.869 1189.14 295.039 1187.69 301.133H1035.82C1034.38 295.039 1033.65 287.869 1033.65 279.624C1033.65 271.02 1034.38 263.85 1035.82 258.114H1062.94C1061.5 252.02 1060.77 244.85 1060.77 236.605C1060.77 228.001 1061.5 220.831 1062.94 215.095H1090.06C1088.62 209.001 1087.89 201.831 1087.89 193.586C1087.89 184.982 1088.62 177.812 1090.06 172.076H1117.18C1115.74 165.982 1115.01 158.812 1115.01 150.567C1115.01 141.963 1115.74 134.793 1117.18 129.057H1144.3C1142.86 122.963 1142.13 115.793 1142.13 107.548C1142.13 98.9438 1142.86 91.774 1144.3 86.0381C1142.86 79.9437 1142.13 72.7739 1142.13 64.5285C1142.13 55.9247 1142.86 48.7549 1144.3 43.019H1068.37C1069.81 48.7549 1070.54 55.9247 1070.54 64.5285C1070.54 72.7739 1069.81 79.9437 1068.37 86.0381H1035.82C1034.38 79.9437 1033.65 72.7739 1033.65 64.5285C1033.65 55.9247 1034.38 48.7549 1035.82 43.019H1057.52C1056.07 36.9247 1055.35 29.7548 1055.35 21.5095C1055.35 12.9057 1056.07 5.73586 1057.52 0H1166C1167.44 5.73586 1168.17 12.9057 1168.17 21.5095C1168.17 29.7548 1167.44 36.9247 1166 43.019H1187.69C1189.14 48.7549 1189.86 55.9247 1189.86 64.5285C1189.86 72.7739 1189.14 79.9437 1187.69 86.0381C1189.14 91.774 1189.86 98.9438 1189.86 107.548Z" fill="#C21807"/>
<path d="M964.182 168.892C967.732 183.028 969.506 200.697 969.506 221.901C969.506 242.221 967.732 259.891 964.182 274.91C967.732 289.046 969.506 306.715 969.506 327.919C969.506 348.239 967.732 365.909 964.182 380.928C967.732 395.064 969.506 412.733 969.506 433.937C969.506 454.257 967.732 471.927 964.182 486.946C967.732 501.082 969.506 518.751 969.506 539.955C969.506 560.275 967.732 577.945 964.182 592.964C967.732 607.1 969.506 624.769 969.506 645.973C969.506 666.293 967.732 683.963 964.182 698.982C967.732 713.118 969.506 730.787 969.506 751.991C969.506 772.311 967.732 789.981 964.182 805H857.7C854.151 789.981 852.376 772.311 852.376 751.991C852.376 730.787 854.151 713.118 857.7 698.982C854.151 683.963 852.376 666.293 852.376 645.973C852.376 624.769 854.151 607.1 857.7 592.964C854.151 577.945 852.376 560.275 852.376 539.955C852.376 518.751 854.151 501.082 857.7 486.946C854.151 471.927 852.376 454.257 852.376 433.937C852.376 412.733 854.151 395.064 857.7 380.928C854.151 365.909 852.376 348.239 852.376 327.919C852.376 306.715 854.151 289.046 857.7 274.91H817.769C821.319 289.046 823.093 306.715 823.093 327.919C823.093 348.239 821.319 365.909 817.769 380.928C821.319 395.064 823.093 412.733 823.093 433.937C823.093 454.257 821.319 471.927 817.769 486.946H791.149C794.698 501.082 796.473 518.751 796.473 539.955C796.473 560.275 794.698 577.945 791.149 592.964C794.698 607.1 796.473 624.769 796.473 645.973C796.473 666.293 794.698 683.963 791.149 698.982H711.287C707.738 683.963 705.963 666.293 705.963 645.973C705.963 624.769 707.738 607.1 711.287 592.964C707.738 577.945 705.963 560.275 705.963 539.955C705.963 518.751 707.738 501.082 711.287 486.946H684.667C681.117 471.927 679.343 454.257 679.343 433.937C679.343 412.733 681.117 395.064 684.667 380.928C681.117 365.909 679.343 348.239 679.343 327.919C679.343 306.715 681.117 289.046 684.667 274.91H644.736C648.285 289.046 650.06 306.715 650.06 327.919C650.06 348.239 648.285 365.909 644.736 380.928C648.285 395.064 650.06 412.733 650.06 433.937C650.06 454.257 648.285 471.927 644.736 486.946C648.285 501.082 650.06 518.751 650.06 539.955C650.06 560.275 648.285 577.945 644.736 592.964C648.285 607.1 650.06 624.769 650.06 645.973C650.06 666.293 648.285 683.963 644.736 698.982C648.285 713.118 650.06 730.787 650.06 751.991C650.06 772.311 648.285 789.981 644.736 805H538.254C534.705 789.981 532.93 772.311 532.93 751.991C532.93 730.787 534.705 713.118 538.254 698.982C534.705 683.963 532.93 666.293 532.93 645.973C532.93 624.769 534.705 607.1 538.254 592.964C534.705 577.945 532.93 560.275 532.93 539.955C532.93 518.751 534.705 501.082 538.254 486.946C534.705 471.927 532.93 454.257 532.93 433.937C532.93 412.733 534.705 395.064 538.254 380.928C534.705 365.909 532.93 348.239 532.93 327.919C532.93 306.715 534.705 289.046 538.254 274.91C534.705 259.891 532.93 242.221 532.93 221.901C532.93 200.697 534.705 183.028 538.254 168.892C534.705 153.873 532.93 136.203 532.93 115.883C532.93 94.6794 534.705 77.0097 538.254 62.874H671.357C674.906 77.0097 676.681 94.6794 676.681 115.883C676.681 136.203 674.906 153.873 671.357 168.892H711.287C714.837 183.028 716.611 200.697 716.611 221.901C716.611 242.221 714.837 259.891 711.287 274.91H731.253C734.802 289.046 736.577 306.715 736.577 327.919C736.577 348.239 734.802 365.909 731.253 380.928H771.183C767.634 365.909 765.859 348.239 765.859 327.919C765.859 306.715 767.634 289.046 771.183 274.91H791.149C787.599 259.891 785.825 242.221 785.825 221.901C785.825 200.697 787.599 183.028 791.149 168.892H831.08C827.53 153.873 825.756 136.203 825.756 115.883C825.756 94.6794 827.53 77.0097 831.08 62.874H964.182C967.732 77.0097 969.506 94.6794 969.506 115.883C969.506 136.203 967.732 153.873 964.182 168.892Z" fill="#C21807"/>
<path d="M431.252 698.982C434.802 713.118 436.576 730.787 436.576 751.991C436.576 772.311 434.802 789.981 431.252 805H324.77C321.221 789.981 319.446 772.311 319.446 751.991C319.446 730.787 321.221 713.118 324.77 698.982H284.839C281.29 683.963 279.515 666.293 279.515 645.973C279.515 624.769 281.29 607.1 284.839 592.964H204.978C201.429 577.945 199.654 560.275 199.654 539.955C199.654 518.751 201.429 501.082 204.978 486.946H111.806C115.356 501.082 117.13 518.751 117.13 539.955C117.13 560.275 115.356 577.945 111.806 592.964C115.356 607.1 117.13 624.769 117.13 645.973C117.13 666.293 115.356 683.963 111.806 698.982C115.356 713.118 117.13 730.787 117.13 751.991C117.13 772.311 115.356 789.981 111.806 805H5.3241C1.7747 789.981 0 772.311 0 751.991C0 730.787 1.7747 713.118 5.3241 698.982C1.7747 683.963 0 666.293 0 645.973C0 624.769 1.7747 607.1 5.3241 592.964C1.7747 577.945 0 560.275 0 539.955C0 518.751 1.7747 501.082 5.3241 486.946C1.7747 471.927 0 454.257 0 433.937C0 412.733 1.7747 395.064 5.3241 380.928C1.7747 365.909 0 348.239 0 327.919C0 306.715 1.7747 289.046 5.3241 274.91C1.7747 259.891 0 242.221 0 221.901C0 200.697 1.7747 183.028 5.3241 168.892C1.7747 153.873 0 136.203 0 115.883C0 94.6794 1.7747 77.0097 5.3241 62.874H111.806C115.356 77.0097 117.13 94.6794 117.13 115.883C117.13 136.203 115.356 153.873 111.806 168.892C115.356 183.028 117.13 200.697 117.13 221.901C117.13 242.221 115.356 259.891 111.806 274.91C115.356 289.046 117.13 306.715 117.13 327.919C117.13 348.239 115.356 365.909 111.806 380.928H204.978C201.429 365.909 199.654 348.239 199.654 327.919C199.654 306.715 201.429 289.046 204.978 274.91H284.839C281.29 259.891 279.515 242.221 279.515 221.901C279.515 200.697 281.29 183.028 284.839 168.892H324.77C321.221 153.873 319.446 136.203 319.446 115.883C319.446 94.6794 321.221 77.0097 324.77 62.874H431.252C434.802 77.0097 436.576 94.6794 436.576 115.883C436.576 136.203 434.802 153.873 431.252 168.892H391.321C394.871 183.028 396.646 200.697 396.646 221.901C396.646 242.221 394.871 259.891 391.321 274.91H311.46C315.009 289.046 316.784 306.715 316.784 327.919C316.784 348.239 315.009 365.909 311.46 380.928H244.909C248.458 395.064 250.233 412.733 250.233 433.937C250.233 454.257 248.458 471.927 244.909 486.946H311.46C315.009 501.082 316.784 518.751 316.784 539.955C316.784 560.275 315.009 577.945 311.46 592.964H391.321C394.871 607.1 396.646 624.769 396.646 645.973C396.646 666.293 394.871 683.963 391.321 698.982H431.252Z" fill="#C21807"/>
</svg>
