<svg width="495" height="15" viewBox="0 0 495 15" fill="none" xmlns="http://www.w3.org/2000/svg">
<path fill-rule="evenodd" clip-rule="evenodd" d="M25.7001 14.8556L1.00011 15L0.929932 3.00024L25.63 2.8558L25.7001 14.8556ZM124.5 14.2778L75.1002 14.5667L75.03 2.56691L124.43 2.27802L124.5 14.2778ZM223.3 13.7L173.9 13.9889L173.83 1.98913L223.23 1.70024L223.3 13.7ZM322.101 13.1223L272.7 13.4111L272.63 1.41135L322.03 1.12246L322.101 13.1223ZM420.901 12.5445L371.501 12.8334L371.43 0.833575L420.83 0.544685L420.901 12.5445ZM495.001 12.1111L470.301 12.2556L470.231 0.255796L494.931 0.111352L495.001 12.1111Z" fill="white"/>
</svg>
