<svg width="29" height="40" viewBox="0 0 29 40" fill="none" xmlns="http://www.w3.org/2000/svg">
<path d="M9.97317 38.2609V34.3478H8.37746V30.8696H6.78176V27.3913H5.18605V23.4783H3.19141V21.7391H1.5957V18.2609H5.18605V20H6.78176V25.2174H8.37746V1.73914H11.5689V18.2609H13.1646V10.8696H16.7549V18.2609H18.3506V12.6087H21.5421V20H23.1378V14.3478H25.1324V16.5217H26.7281V29.1304H25.1324V34.3478H23.1378V38.2609H9.97317Z" fill="#FEFEFE"/>
<path d="M8.37747 40V34.3478H6.78176V30.8696H5.18605V27.3913H3.19142V23.4783H1.59571V21.7391H0V16.5217H5.18605V18.2609H6.78176V1.73913H8.37747V0H11.5689V1.73913H13.1646V9.13043H16.7549V10.8696H21.5421V12.6087H25.1324V14.3478H26.7281V16.5217H28.3238V29.1304H26.7281V34.3478H25.1324V40H8.37747ZM23.1378 38.2609V34.3478H25.1324V29.1304H26.7281V16.5217H25.1324V14.3478H23.1378V20H21.5421V12.6087H18.3506V18.2609H16.7549V10.8696H13.1646V18.2609H11.5689V1.73913H8.37747V25.2174H6.78176V20H5.18605V18.2609H1.59571V21.7391H3.19142V23.4783H5.18605V27.3913H6.78176V30.8696H8.37747V34.3478H9.97318V38.2609H23.1378Z" fill="black"/>
</svg>
