<svg width="18" height="25" viewBox="0 0 18 25" fill="none" xmlns="http://www.w3.org/2000/svg">
<path d="M6.23323 23.913V21.4674H5.23592V19.2934H4.2386V17.1195H3.24128V14.6739H1.99463V13.5869H0.997314V11.413H3.24128V12.5H4.2386V15.7608H5.23592V1.08691H7.23055V11.413H8.22787V6.79344H10.4718V11.413H11.4692V7.88039H13.4638V12.5H14.4611V8.96735H15.7078V10.326H16.7051V18.2065H15.7078V21.4674H14.4611V23.913H6.23323Z" fill="#FEFEFE"/>
<path d="M5.23592 25V21.4674H4.2386V19.2935H3.24128V17.1196H1.99464V14.6739H0.997318V13.587H0V10.3261H3.24128V11.413H4.2386V1.08696H5.23592V0H7.23055V1.08696H8.22787V5.70652H10.4718V6.79348H13.4638V7.88043H15.7078V8.96739H16.7051V10.3261H17.7024V18.2065H16.7051V21.4674H15.7078V25H5.23592ZM14.4611 23.913V21.4674H15.7078V18.2065H16.7051V10.3261H15.7078V8.96739H14.4611V12.5H13.4638V7.88043H11.4692V11.413H10.4718V6.79348H8.22787V11.413H7.23055V1.08696H5.23592V15.7609H4.2386V12.5H3.24128V11.413H0.997318V13.587H1.99464V14.6739H3.24128V17.1196H4.2386V19.2935H5.23592V21.4674H6.23324V23.913H14.4611Z" fill="black"/>
</svg>
