<svg width="26" height="23" viewBox="0 0 26 23" fill="none" xmlns="http://www.w3.org/2000/svg">
<path d="M13.4458 22.425L2.40758 1.72497L24.484 1.72498L13.4458 22.425Z" fill="white"/>
<rect x="14.5" y="20.7" width="2.3" height="2.3" transform="rotate(90 14.5 20.7)" fill="white"/>
<rect x="12.2" y="16.1" width="2.3" height="2.3" transform="rotate(90 12.2 16.1)" fill="white"/>
<rect x="9.90002" y="11.5" width="2.3" height="2.3" transform="rotate(90 9.90002 11.5)" fill="white"/>
<rect x="7.59998" y="9.20001" width="2.3" height="2.3" transform="rotate(90 7.59998 9.20001)" fill="white"/>
<rect x="5.29993" y="4.59998" width="2.3" height="2.3" transform="rotate(90 5.29993 4.59998)" fill="white"/>
<rect x="5.29993" y="2.29999" width="2.3" height="2.3" transform="rotate(90 5.29993 2.29999)" fill="white"/>
<rect x="7.59998" y="6.90002" width="2.3" height="2.3" transform="rotate(90 7.59998 6.90002)" fill="white"/>
<rect x="9.90002" y="13.8" width="2.3" height="2.3" transform="rotate(90 9.90002 13.8)" fill="white"/>
<rect x="12.2" y="18.4" width="2.3" height="2.3" transform="rotate(90 12.2 18.4)" fill="white"/>
<rect x="3" width="2.3" height="2.3" transform="rotate(90 3 0)" fill="white"/>
<rect x="23.7" width="2.3" height="2.3" transform="rotate(90 23.7 0)" fill="white"/>
<rect x="21.4" width="2.3" height="2.3" transform="rotate(90 21.4 0)" fill="white"/>
<rect x="19.1" width="2.3" height="2.3" transform="rotate(90 19.1 0)" fill="white"/>
<rect x="16.7999" width="2.3" height="2.3" transform="rotate(90 16.7999 0)" fill="white"/>
<rect x="14.5" width="2.3" height="2.3" transform="rotate(90 14.5 0)" fill="white"/>
<rect x="12.2" width="2.3" height="2.3" transform="rotate(90 12.2 0)" fill="white"/>
<rect x="9.90002" width="2.3" height="2.3" transform="rotate(90 9.90002 0)" fill="white"/>
<rect x="7.59998" width="2.3" height="2.3" transform="rotate(90 7.59998 0)" fill="white"/>
<rect x="5.29993" width="2.3" height="2.3" transform="rotate(90 5.29993 0)" fill="white"/>
<rect x="26" width="2.3" height="2.3" transform="rotate(90 26 0)" fill="white"/>
<rect x="23.7" y="4.59998" width="2.3" height="2.3" transform="rotate(90 23.7 4.59998)" fill="white"/>
<rect x="21.4" y="9.20001" width="2.3" height="2.3" transform="rotate(90 21.4 9.20001)" fill="white"/>
<rect x="19.1" y="13.8" width="2.3" height="2.3" transform="rotate(90 19.1 13.8)" fill="white"/>
<rect x="16.7999" y="16.1" width="2.3" height="2.3" transform="rotate(90 16.7999 16.1)" fill="white"/>
<rect x="23.7" y="2.29999" width="2.3" height="2.3" transform="rotate(90 23.7 2.29999)" fill="white"/>
<rect x="21.4" y="6.90002" width="2.3" height="2.3" transform="rotate(90 21.4 6.90002)" fill="white"/>
<rect x="19.1" y="11.5" width="2.3" height="2.3" transform="rotate(90 19.1 11.5)" fill="white"/>
<rect x="16.7999" y="18.4" width="2.3" height="2.3" transform="rotate(90 16.7999 18.4)" fill="white"/>
</svg>
